<svg width="135" height="165" viewBox="0 0 135 165" fill="none" xmlns="http://www.w3.org/2000/svg">
<g clip-path="url(#clip0_1_331)">
<path d="M83.5011 65.8549L57.7931 90.5497L47.2791 80.4421C45.6394 78.8981 43.0146 78.8981 41.3743 80.4421C39.7104 82.0088 39.6836 84.5743 41.3141 86.1726L54.8108 99.1456C55.6018 99.906 56.6745 100.333 57.7936 100.333C58.9121 100.333 59.9848 99.906 60.7759 99.1456L89.5269 71.5271C91.1573 69.9287 91.1306 67.3627 89.4666 65.7965C87.8027 64.2303 85.132 64.256 83.5011 65.8549ZM134.911 15.6602C134.434 13.4687 132.197 12.0637 129.916 12.5218C109.082 16.748 87.3568 12.4803 69.9225 0.736113C68.4692 -0.245371 66.5308 -0.245371 65.0775 0.736113C47.6438 12.4808 25.9181 16.749 5.08392 12.5218C4.80068 12.4649 4.51229 12.4362 4.22287 12.4362C1.89205 12.4348 0.00154491 14.2483 0 16.4873V81.4789C0.0139042 105.277 11.9409 127.618 32.0526 141.516L65.0446 164.24C65.7599 164.735 66.6189 165.001 67.5 165C68.3811 165.001 69.2401 164.735 69.9554 164.241L102.947 141.516C123.059 127.618 134.986 105.277 135 81.4789V16.4873C135 16.2093 134.97 15.9323 134.911 15.6602ZM126.562 81.4789C126.553 102.665 115.938 122.555 98.0365 134.93L67.5 155.961L36.9635 134.93C19.0616 122.555 8.44677 102.665 8.4375 81.4789V21.3314C29.04 24.2878 50.0554 19.8805 67.5 8.94416C84.9461 19.8775 105.961 24.2848 126.562 21.3314V81.4789Z" fill="black"/>
</g>
<defs>
<clipPath id="clip0_1_331">
<rect width="135" height="165" fill="white"/>
</clipPath>
</defs>
</svg>
