<svg width="164" height="97" viewBox="0 0 164 97" fill="none" xmlns="http://www.w3.org/2000/svg">
<mask id="path-1-outside-1_1_333" maskUnits="userSpaceOnUse" x="0" y="0" width="164" height="97" fill="black">
<rect fill="white" width="164" height="97"/>
<path d="M43.665 35C51.865 36.8 58.665 40.35 64.065 45.65C69.465 50.95 72.165 57.1 72.165 64.1C72.165 68.3 71.165 72.4 69.165 76.4C65.965 82.8 61.165 87.6 54.765 90.8C48.465 94 41.165 95.6 32.865 95.6C27.665 95.6 23.015 94.65 18.915 92.75C14.815 90.75 10.765 88.1 6.76504 84.8C5.26504 83.4 3.91504 81.4 2.71504 78.8C1.61504 76.2 1.06504 74.05 1.06504 72.35C1.06504 70.15 1.66504 68.4 2.86504 67.1C4.16504 65.7 5.86504 65 7.96504 65C10.065 65 11.715 65.5 12.915 66.5C14.115 67.5 15.565 69.1 17.265 71.3C18.865 73.4 20.315 75.1 21.615 76.4C22.915 77.6 24.665 78.65 26.865 79.55C29.065 80.45 31.815 80.9 35.115 80.9C41.815 80.9 47.065 79.25 50.865 75.95C54.665 72.65 56.565 68 56.565 62C56.565 59.7 55.315 57.4 52.815 55.1C50.315 52.7 47.965 51 45.765 50C44.465 49.3 42.065 48.6 38.565 47.9C33.865 46.7 30.315 45.55 27.915 44.45C25.615 43.25 24.465 41.4 24.465 38.9C24.465 37.2 25.215 35.55 26.715 33.95C28.215 32.25 30.465 30.15 33.465 27.65C36.465 25.15 38.715 23.1 40.215 21.5C41.715 19.8 42.465 18.1 42.465 16.4C40.565 15.9 37.715 15.65 33.915 15.65C32.215 15.65 29.665 15.75 26.265 15.95C23.265 16.15 20.965 16.25 19.365 16.25C15.765 16.25 12.665 15.65 10.065 14.45C7.56504 13.25 6.31504 11.7 6.31504 9.8C6.31504 7.69999 6.51504 6.04999 6.91504 4.85C7.31504 3.55 8.06504 2.75 9.16504 2.44999C9.86504 2.15 11.115 2 12.915 2C17.815 2 22.065 2.15 25.665 2.44999C29.665 2.65 32.715 2.75 34.815 2.75L47.265 2.59999C57.465 2.59999 62.565 5.04999 62.565 9.95C62.565 13.65 60.665 17.85 56.865 22.55C53.165 27.15 48.765 31.3 43.665 35ZM151.503 10.4C154.803 15.5 157.453 21.35 159.453 27.95C161.453 34.45 162.453 41.1 162.453 47.9C162.453 56 161.053 63.7 158.253 71C155.553 78.3 151.453 84.25 145.953 88.85C140.553 93.45 133.953 95.75 126.153 95.75C118.853 95.75 112.153 93.9 106.053 90.2C99.9533 86.4 95.3533 82 92.2533 77C89.9533 73.3 88.2033 69.15 87.0033 64.55C85.8033 59.85 85.2033 55.15 85.2033 50.45C85.2033 42.25 86.9033 34.25 90.3033 26.45C93.8033 18.65 98.6033 12.4 104.703 7.7C110.503 3.4 117.153 1.25 124.653 1.25C132.953 1.25 141.903 4.3 151.503 10.4ZM111.303 20.75C110.403 22.25 109.503 23.6 108.603 24.8C106.403 28.1 104.803 30.9 103.803 33.2C102.803 35.4 101.903 38.8 101.103 43.4C100.703 45.5 100.503 47.95 100.503 50.75C100.503 57.85 101.903 64 104.703 69.2C107.603 74.3 111.553 77.75 116.553 79.55C118.953 80.45 121.653 80.9 124.653 80.9C132.153 80.9 137.803 77.6 141.603 71C145.503 64.3 147.453 56.05 147.453 46.25C147.453 37.15 145.753 29.7 142.353 23.9C138.953 18 133.703 15.05 126.603 15.05C123.703 15.05 121.203 15.5 119.103 16.4C117.103 17.3 114.503 18.75 111.303 20.75Z"/>
</mask>
<path d="M43.665 35C51.865 36.8 58.665 40.35 64.065 45.65C69.465 50.95 72.165 57.1 72.165 64.1C72.165 68.3 71.165 72.4 69.165 76.4C65.965 82.8 61.165 87.6 54.765 90.8C48.465 94 41.165 95.6 32.865 95.6C27.665 95.6 23.015 94.65 18.915 92.75C14.815 90.75 10.765 88.1 6.76504 84.8C5.26504 83.4 3.91504 81.4 2.71504 78.8C1.61504 76.2 1.06504 74.05 1.06504 72.35C1.06504 70.15 1.66504 68.4 2.86504 67.1C4.16504 65.7 5.86504 65 7.96504 65C10.065 65 11.715 65.5 12.915 66.5C14.115 67.5 15.565 69.1 17.265 71.3C18.865 73.4 20.315 75.1 21.615 76.4C22.915 77.6 24.665 78.65 26.865 79.55C29.065 80.45 31.815 80.9 35.115 80.9C41.815 80.9 47.065 79.25 50.865 75.95C54.665 72.65 56.565 68 56.565 62C56.565 59.7 55.315 57.4 52.815 55.1C50.315 52.7 47.965 51 45.765 50C44.465 49.3 42.065 48.6 38.565 47.9C33.865 46.7 30.315 45.55 27.915 44.45C25.615 43.25 24.465 41.4 24.465 38.9C24.465 37.2 25.215 35.55 26.715 33.95C28.215 32.25 30.465 30.15 33.465 27.65C36.465 25.15 38.715 23.1 40.215 21.5C41.715 19.8 42.465 18.1 42.465 16.4C40.565 15.9 37.715 15.65 33.915 15.65C32.215 15.65 29.665 15.75 26.265 15.95C23.265 16.15 20.965 16.25 19.365 16.25C15.765 16.25 12.665 15.65 10.065 14.45C7.56504 13.25 6.31504 11.7 6.31504 9.8C6.31504 7.69999 6.51504 6.04999 6.91504 4.85C7.31504 3.55 8.06504 2.75 9.16504 2.44999C9.86504 2.15 11.115 2 12.915 2C17.815 2 22.065 2.15 25.665 2.44999C29.665 2.65 32.715 2.75 34.815 2.75L47.265 2.59999C57.465 2.59999 62.565 5.04999 62.565 9.95C62.565 13.65 60.665 17.85 56.865 22.55C53.165 27.15 48.765 31.3 43.665 35ZM151.503 10.4C154.803 15.5 157.453 21.35 159.453 27.95C161.453 34.45 162.453 41.1 162.453 47.9C162.453 56 161.053 63.7 158.253 71C155.553 78.3 151.453 84.25 145.953 88.85C140.553 93.45 133.953 95.75 126.153 95.75C118.853 95.75 112.153 93.9 106.053 90.2C99.9533 86.4 95.3533 82 92.2533 77C89.9533 73.3 88.2033 69.15 87.0033 64.55C85.8033 59.85 85.2033 55.15 85.2033 50.45C85.2033 42.25 86.9033 34.25 90.3033 26.45C93.8033 18.65 98.6033 12.4 104.703 7.7C110.503 3.4 117.153 1.25 124.653 1.25C132.953 1.25 141.903 4.3 151.503 10.4ZM111.303 20.75C110.403 22.25 109.503 23.6 108.603 24.8C106.403 28.1 104.803 30.9 103.803 33.2C102.803 35.4 101.903 38.8 101.103 43.4C100.703 45.5 100.503 47.95 100.503 50.75C100.503 57.85 101.903 64 104.703 69.2C107.603 74.3 111.553 77.75 116.553 79.55C118.953 80.45 121.653 80.9 124.653 80.9C132.153 80.9 137.803 77.6 141.603 71C145.503 64.3 147.453 56.05 147.453 46.25C147.453 37.15 145.753 29.7 142.353 23.9C138.953 18 133.703 15.05 126.603 15.05C123.703 15.05 121.203 15.5 119.103 16.4C117.103 17.3 114.503 18.75 111.303 20.75Z" fill="black"/>
<path d="M43.665 35L43.0778 34.1906L41.2743 35.499L43.4506 35.9767L43.665 35ZM64.065 45.65L64.7655 44.9363L64.065 45.65ZM69.165 76.4L70.0595 76.8472L69.165 76.4ZM54.765 90.8L54.3178 89.9055L54.3122 89.9084L54.765 90.8ZM18.915 92.75L18.4766 93.6488L18.4856 93.6531L18.4946 93.6573L18.915 92.75ZM6.76504 84.8L6.08272 85.5311L6.10507 85.5519L6.12866 85.5714L6.76504 84.8ZM2.71504 78.8L1.79407 79.1896L1.80034 79.2045L1.80708 79.2191L2.71504 78.8ZM2.86504 67.1L2.13224 66.4195L2.13024 66.4217L2.86504 67.1ZM12.915 66.5L13.5552 65.7318H13.5552L12.915 66.5ZM17.265 71.3L18.0605 70.6939L18.0563 70.6886L17.265 71.3ZM21.615 76.4L20.9079 77.1071L20.9221 77.1212L20.9368 77.1348L21.615 76.4ZM26.865 79.55L27.2437 78.6245L26.865 79.55ZM50.865 75.95L50.2094 75.195L50.865 75.95ZM52.815 55.1L52.1225 55.8214L52.1302 55.8287L52.138 55.8359L52.815 55.1ZM45.765 50L45.2909 50.8805L45.3206 50.8964L45.3512 50.9104L45.765 50ZM38.565 47.9L38.3177 48.8689L38.3431 48.8754L38.3689 48.8806L38.565 47.9ZM27.915 44.45L27.4525 45.3366L27.4751 45.3484L27.4984 45.3591L27.915 44.45ZM26.715 33.95L27.4446 34.6339L27.4549 34.6229L27.4649 34.6116L26.715 33.95ZM40.215 21.5L40.9446 22.1839L40.9549 22.1729L40.9649 22.1616L40.215 21.5ZM42.465 16.4H43.465V15.6291L42.7195 15.4329L42.465 16.4ZM26.265 15.95L26.2063 14.9517L26.1985 14.9522L26.265 15.95ZM10.065 14.45L9.63231 15.3515L9.63912 15.3548L9.64598 15.358L10.065 14.45ZM6.91504 4.85L7.86372 5.16623L7.8674 5.1552L7.87082 5.14408L6.91504 4.85ZM9.16504 2.44999L9.42816 3.41476L9.49514 3.39649L9.55895 3.36914L9.16504 2.44999ZM25.665 2.44999L25.582 3.44654L25.5985 3.44792L25.6151 3.44875L25.665 2.44999ZM34.815 2.75V3.75007L34.8271 3.74993L34.815 2.75ZM47.265 2.59999V1.59992L47.253 1.60006L47.265 2.59999ZM56.865 22.55L56.0874 21.9213L56.0858 21.9232L56.865 22.55ZM43.665 35L43.4506 35.9767C51.4879 37.741 58.1131 41.2094 63.3646 46.3637L64.065 45.65L64.7655 44.9363C59.217 39.4906 52.2422 35.859 43.8795 34.0233L43.665 35ZM64.065 45.65L63.3646 46.3637C68.5901 51.4925 71.165 57.3916 71.165 64.1H72.165H73.165C73.165 56.8084 70.3399 50.4075 64.7655 44.9363L64.065 45.65ZM72.165 64.1H71.165C71.165 68.1348 70.2058 72.0824 68.2706 75.9528L69.165 76.4L70.0595 76.8472C72.1243 72.7176 73.165 68.4652 73.165 64.1H72.165ZM69.165 76.4L68.2706 75.9528C65.1674 82.1593 60.5243 86.8023 54.3178 89.9056L54.765 90.8L55.2123 91.6944C61.8058 88.3977 66.7627 83.4407 70.0595 76.8472L69.165 76.4ZM54.765 90.8L54.3122 89.9084C48.175 93.0257 41.0351 94.6 32.865 94.6V95.6V96.6C41.295 96.6 48.755 94.9743 55.2179 91.6916L54.765 90.8ZM32.865 95.6V94.6C27.7884 94.6 23.2853 93.6731 19.3355 91.8427L18.915 92.75L18.4946 93.6573C22.7448 95.6269 27.5417 96.6 32.865 96.6V95.6ZM18.915 92.75L19.3535 91.8512C15.3331 89.8901 11.3488 87.2852 7.40142 84.0286L6.76504 84.8L6.12866 85.5714C10.1813 88.9148 14.297 91.6099 18.4766 93.6488L18.915 92.75ZM6.76504 84.8L7.44736 84.0689C6.07158 82.7849 4.78867 80.9066 3.623 78.3809L2.71504 78.8L1.80708 79.2191C3.04141 81.8934 4.4585 84.0151 6.08272 85.5311L6.76504 84.8ZM2.71504 78.8L3.63601 78.4104C2.55819 75.8628 2.06504 73.8562 2.06504 72.35H1.06504H0.0650392C0.0650392 74.2438 0.671888 76.5372 1.79407 79.1896L2.71504 78.8ZM1.06504 72.35H2.06504C2.06504 70.3374 2.60929 68.8514 3.59984 67.7783L2.86504 67.1L2.13024 66.4217C0.720785 67.9486 0.0650392 69.9626 0.0650392 72.35H1.06504ZM2.86504 67.1L3.59783 67.7804C4.68871 66.6057 6.11244 66 7.96504 66V65V64C5.61764 64 3.64137 64.7943 2.13225 66.4195L2.86504 67.1ZM7.96504 65V66C9.91194 66 11.3082 66.4627 12.2749 67.2682L12.915 66.5L13.5552 65.7318C12.1219 64.5373 10.2181 64 7.96504 64V65ZM12.915 66.5L12.2749 67.2682C13.3917 68.1989 14.7895 69.7319 16.4738 71.9114L17.265 71.3L18.0563 70.6886C16.3405 68.4681 14.8384 66.8011 13.5552 65.7318L12.915 66.5ZM17.265 71.3L16.4696 71.906C18.0861 74.0277 19.5659 75.7651 20.9079 77.1071L21.615 76.4L22.3221 75.6929C21.0642 74.4349 19.6439 72.7723 18.0605 70.694L17.265 71.3ZM21.615 76.4L20.9368 77.1348C22.3489 78.4383 24.2115 79.5449 26.4864 80.4755L26.865 79.55L27.2437 78.6245C25.1185 77.7551 23.4812 76.7617 22.2933 75.6652L21.615 76.4ZM26.865 79.55L26.4864 80.4755C28.8435 81.4398 31.7321 81.9 35.115 81.9V80.9V79.9C31.8979 79.9 29.2866 79.4602 27.2437 78.6245L26.865 79.55ZM35.115 80.9V81.9C41.9752 81.9 47.4859 80.209 51.5207 76.705L50.865 75.95L50.2094 75.195C46.6442 78.291 41.6549 79.9 35.115 79.9V80.9ZM50.865 75.95L51.5207 76.705C55.5817 73.1784 57.565 68.2286 57.565 62H56.565H55.565C55.565 67.7714 53.7484 72.1216 50.2094 75.195L50.865 75.95ZM56.565 62H57.565C57.565 59.3095 56.099 56.7624 53.4921 54.3641L52.815 55.1L52.138 55.8359C54.5311 58.0376 55.565 60.0905 55.565 62H56.565ZM52.815 55.1L53.5076 54.3786C50.9584 51.9314 48.5159 50.1519 46.1788 49.0896L45.765 50L45.3512 50.9104C47.4142 51.8481 49.6717 53.4686 52.1225 55.8214L52.815 55.1ZM45.765 50L46.2391 49.1195C44.7938 48.3412 42.2596 47.6191 38.7612 46.9194L38.565 47.9L38.3689 48.8806C41.8705 49.5809 44.1363 50.2588 45.2909 50.8805L45.765 50ZM38.565 47.9L38.8124 46.9311C34.1309 45.7358 30.6496 44.6033 28.3317 43.5409L27.915 44.45L27.4984 45.3591C29.9805 46.4967 33.5991 47.6642 38.3177 48.8689L38.565 47.9ZM27.915 44.45L28.3776 43.5634C27.3558 43.0303 26.6407 42.3808 26.1768 41.6346C25.7142 40.8904 25.465 39.9916 25.465 38.9H24.465H23.465C23.465 40.3084 23.7909 41.5846 24.4783 42.6904C25.1644 43.7942 26.1743 44.6697 27.4525 45.3366L27.915 44.45ZM24.465 38.9H25.465C25.465 37.5212 26.0662 36.1042 27.4446 34.6339L26.715 33.95L25.9855 33.2661C24.3639 34.9958 23.465 36.8787 23.465 38.9H24.465ZM26.715 33.95L27.4649 34.6116C28.9155 32.9676 31.1208 30.9053 34.1052 28.4182L33.465 27.65L32.8249 26.8818C29.8093 29.3947 27.5146 31.5324 25.9652 33.2884L26.715 33.95ZM33.465 27.65L34.1052 28.4182C37.1165 25.9088 39.403 23.8283 40.9446 22.1839L40.215 21.5L39.4855 20.8161C38.0271 22.3717 35.8136 24.3912 32.8249 26.8818L33.465 27.65ZM40.215 21.5L40.9649 22.1616C42.5715 20.3407 43.465 18.4151 43.465 16.4H42.465H41.465C41.465 17.7849 40.8585 19.2593 39.4652 20.8384L40.215 21.5ZM42.465 16.4L42.7195 15.4329C40.6915 14.8992 37.7368 14.65 33.915 14.65V15.65V16.65C37.6933 16.65 40.4386 16.9008 42.2105 17.3671L42.465 16.4ZM33.915 15.65V14.65C32.1845 14.65 29.6106 14.7515 26.2063 14.9517L26.265 15.95L26.3238 16.9483C29.7195 16.7485 32.2455 16.65 33.915 16.65V15.65ZM26.265 15.95L26.1985 14.9522C23.2051 15.1518 20.9314 15.25 19.365 15.25V16.25V17.25C20.9987 17.25 23.325 17.1482 26.3316 16.9478L26.265 15.95ZM19.365 16.25V15.25C15.8736 15.25 12.9235 14.6679 10.4841 13.542L10.065 14.45L9.64598 15.358C12.4066 16.6321 15.6564 17.25 19.365 17.25V16.25ZM10.065 14.45L10.4978 13.5485C8.16323 12.4279 7.31504 11.1486 7.31504 9.8H6.31504H5.31504C5.31504 12.2514 6.96685 14.0721 9.63231 15.3515L10.065 14.45ZM6.31504 9.8H7.31504C7.31504 7.74638 7.51277 6.21909 7.86372 5.16623L6.91504 4.85L5.96636 4.53377C5.51731 5.88091 5.31504 7.65361 5.31504 9.8H6.31504ZM6.91504 4.85L7.87082 5.14408C8.19265 4.09811 8.72656 3.6061 9.42816 3.41476L9.16504 2.44999L8.90192 1.48523C7.40352 1.89389 6.43742 3.00188 5.95926 4.55591L6.91504 4.85ZM9.16504 2.44999L9.55895 3.36914C10.0517 3.15796 11.1148 3 12.915 3V2V1C11.1153 1 9.67835 1.14204 8.77112 1.53085L9.16504 2.44999ZM12.915 2V3C17.7964 3 22.0174 3.14949 25.582 3.44654L25.665 2.44999L25.7481 1.45345C22.1127 1.15051 17.8337 1 12.915 1V2ZM25.665 2.44999L25.6151 3.44875C29.6197 3.64898 32.6896 3.75 34.815 3.75V2.75V1.75C32.7405 1.75 29.7104 1.65101 25.715 1.45124L25.665 2.44999ZM34.815 2.75L34.8271 3.74993L47.2771 3.59992L47.265 2.59999L47.253 1.60006L34.803 1.75007L34.815 2.75ZM47.265 2.59999V3.59999C52.3169 3.59999 55.9609 4.21182 58.307 5.33888C59.4666 5.89594 60.2712 6.56083 60.7872 7.30445C61.2974 8.0398 61.565 8.90839 61.565 9.95H62.565H63.565C63.565 8.5416 63.1951 7.26644 62.4304 6.16429C61.6714 5.0704 60.5635 4.20404 59.1731 3.53611C56.4192 2.21317 52.4132 1.59999 47.265 1.59999V2.59999ZM62.565 9.95H61.565C61.565 13.3157 59.828 17.2948 56.0874 21.9213L56.865 22.55L57.6427 23.1787C61.5021 18.4052 63.565 13.9843 63.565 9.95H62.565ZM56.865 22.55L56.0858 21.9232C52.445 26.4496 48.1108 30.5392 43.0778 34.1906L43.665 35L44.2523 35.8094C49.4193 32.0608 53.885 27.8504 57.6443 23.1768L56.865 22.55ZM151.503 10.4L152.343 9.85675L152.224 9.67321L152.04 9.55598L151.503 10.4ZM159.453 27.95L158.496 28.24L158.498 28.2441L159.453 27.95ZM158.253 71L157.32 70.6419L157.315 70.6531L158.253 71ZM145.953 88.85L145.312 88.0829L145.305 88.0888L145.953 88.85ZM106.053 90.2L105.525 91.0488L105.535 91.055L106.053 90.2ZM92.2533 77L93.1032 76.4731L93.1026 76.4721L92.2533 77ZM87.0033 64.55L86.0344 64.7974L86.0357 64.8024L87.0033 64.55ZM90.3033 26.45L89.3909 26.0406L89.3866 26.0504L90.3033 26.45ZM104.703 7.7L104.108 6.89669L104.1 6.9022L104.093 6.90786L104.703 7.7ZM111.303 20.75L110.773 19.902L110.569 20.0294L110.446 20.2355L111.303 20.75ZM108.603 24.8L107.803 24.2L107.787 24.2222L107.771 24.2453L108.603 24.8ZM103.803 33.2L104.714 33.6138L104.717 33.6063L104.72 33.5987L103.803 33.2ZM101.103 43.4L102.086 43.5871L102.087 43.5792L102.089 43.5713L101.103 43.4ZM104.703 69.2L103.823 69.6741L103.828 69.6843L103.834 69.6943L104.703 69.2ZM116.553 79.55L116.904 78.6136L116.892 78.6091L116.553 79.55ZM141.603 71L140.739 70.4969L140.737 70.501L141.603 71ZM142.353 23.9L141.487 24.3993L141.491 24.4057L142.353 23.9ZM119.103 16.4L118.709 15.4808L118.701 15.4844L118.693 15.4881L119.103 16.4ZM151.503 10.4L150.664 10.9432C153.907 15.955 156.52 21.7176 158.496 28.24L159.453 27.95L160.41 27.66C158.387 20.9824 155.7 15.045 152.343 9.85675L151.503 10.4ZM159.453 27.95L158.498 28.2441C160.468 34.6488 161.453 41.1997 161.453 47.9H162.453H163.453C163.453 41.0003 162.438 34.2512 160.409 27.6559L159.453 27.95ZM162.453 47.9H161.453C161.453 55.882 160.074 63.4603 157.32 70.6419L158.253 71L159.187 71.3581C162.032 63.9397 163.453 56.118 163.453 47.9H162.453ZM158.253 71L157.315 70.6531C154.671 77.804 150.667 83.6042 145.312 88.0829L145.953 88.85L146.595 89.6171C152.24 84.8958 156.436 78.796 159.191 71.3469L158.253 71ZM145.953 88.85L145.305 88.0888C140.104 92.5189 133.741 94.75 126.153 94.75V95.75V96.75C134.166 96.75 141.002 94.3811 146.602 89.6112L145.953 88.85ZM126.153 95.75V94.75C119.032 94.75 112.512 92.9479 106.572 89.345L106.053 90.2L105.535 91.055C111.795 94.8521 118.675 96.75 126.153 96.75V95.75ZM106.053 90.2L106.582 89.3512C100.584 85.6147 96.1063 81.3168 93.1032 76.4731L92.2533 77L91.4034 77.5269C94.6003 82.6832 99.3226 87.1853 105.525 91.0488L106.053 90.2ZM92.2533 77L93.1026 76.4721C90.8603 72.8648 89.1479 68.8091 87.9709 64.2976L87.0033 64.55L86.0357 64.8024C87.2588 69.4909 89.0464 73.7352 91.404 77.5279L92.2533 77ZM87.0033 64.55L87.9722 64.3026C86.7922 59.6809 86.2033 55.0639 86.2033 50.45H85.2033H84.2033C84.2033 55.2361 84.8144 60.0191 86.0344 64.7974L87.0033 64.55ZM85.2033 50.45H86.2033C86.2033 42.3927 87.8728 34.5284 91.22 26.8496L90.3033 26.45L89.3866 26.0504C85.9338 33.9716 84.2033 42.1073 84.2033 50.45H85.2033ZM90.3033 26.45L91.2157 26.8594C94.6557 19.193 99.3583 13.0807 105.314 8.49214L104.703 7.7L104.093 6.90786C97.8484 11.7193 92.9509 18.1069 89.391 26.0406L90.3033 26.45ZM104.703 7.7L105.299 8.50331C110.92 4.33625 117.359 2.25 124.653 2.25V1.25V0.25C116.948 0.25 110.087 2.46375 104.108 6.89669L104.703 7.7ZM124.653 1.25V2.25C132.705 2.25 141.47 5.20945 150.967 11.244L151.503 10.4L152.04 9.55598C142.337 3.39055 133.201 0.25 124.653 0.25V1.25ZM111.303 20.75L110.446 20.2355C109.561 21.7107 108.68 23.0316 107.803 24.2L108.603 24.8L109.403 25.4C110.327 24.1684 111.246 22.7893 112.161 21.2645L111.303 20.75ZM108.603 24.8L107.771 24.2453C105.555 27.5698 103.919 30.425 102.886 32.8013L103.803 33.2L104.72 33.5987C105.687 31.375 107.252 28.6302 109.435 25.3547L108.603 24.8ZM103.803 33.2L102.893 32.7862C101.839 35.1053 100.922 38.6073 100.118 43.2287L101.103 43.4L102.089 43.5713C102.885 38.9927 103.768 35.6947 104.714 33.6138L103.803 33.2ZM101.103 43.4L100.121 43.2129C99.7063 45.3901 99.5033 47.9053 99.5033 50.75H100.503H101.503C101.503 47.9947 101.7 45.6099 102.086 43.5871L101.103 43.4ZM100.503 50.75H99.5033C99.5033 57.9822 100.93 64.3017 103.823 69.6741L104.703 69.2L105.584 68.7259C102.877 63.6983 101.503 57.7178 101.503 50.75H100.503ZM104.703 69.2L103.834 69.6943C106.839 74.9785 110.966 78.6015 116.215 80.4909L116.553 79.55L116.892 78.6091C112.14 76.8985 108.368 73.6215 105.573 68.7057L104.703 69.2ZM116.553 79.55L116.202 80.4863C118.732 81.4349 121.553 81.9 124.653 81.9V80.9V79.9C121.753 79.9 119.175 79.4651 116.904 78.6137L116.553 79.55ZM124.653 80.9V81.9C132.518 81.9 138.495 78.403 142.47 71.499L141.603 71L140.737 70.501C137.112 76.797 131.789 79.9 124.653 79.9V80.9ZM141.603 71L142.468 71.5031C146.477 64.615 148.453 56.1807 148.453 46.25H147.453H146.453C146.453 55.9192 144.53 63.985 140.739 70.4969L141.603 71ZM147.453 46.25H148.453C148.453 37.0327 146.732 29.3926 143.216 23.3943L142.353 23.9L141.491 24.4057C144.774 30.0074 146.453 37.2673 146.453 46.25H147.453ZM142.353 23.9L143.22 23.4007C139.632 17.175 134.042 14.05 126.603 14.05V15.05V16.05C133.365 16.05 138.275 18.825 141.487 24.3993L142.353 23.9ZM126.603 15.05V14.05C123.603 14.05 120.963 14.5152 118.709 15.4808L119.103 16.4L119.497 17.3191C121.444 16.4848 123.804 16.05 126.603 16.05V15.05ZM119.103 16.4L118.693 15.4881C116.633 16.4152 113.989 17.8924 110.773 19.902L111.303 20.75L111.833 21.598C115.018 19.6075 117.574 18.1848 119.514 17.3119L119.103 16.4Z" fill="black" mask="url(#path-1-outside-1_1_333)"/>
</svg>
