<svg width="165" height="165" viewBox="0 0 165 165" fill="none" xmlns="http://www.w3.org/2000/svg">
<path d="M144.375 27.5H115.5V18.3333C115.488 8.2133 108.108 0.0128682 99 0H66C56.892 0.0128682 49.5116 8.2133 49.5 18.3333V27.5H20.625C9.23845 27.5117 0.010574 37.7649 0 50.4167V142.083C0.010574 154.735 9.23845 164.988 20.625 165H144.375C155.762 164.988 164.989 154.735 165 142.083V50.4167C164.989 37.7649 155.762 27.5117 144.375 27.5ZM57.75 18.3333C57.753 13.2722 61.445 9.17002 66 9.16667H99C103.555 9.17002 107.247 13.2722 107.25 18.3333V27.5H57.75V18.3333ZM156.75 142.083C156.742 149.674 151.207 155.825 144.375 155.833H20.625C13.7935 155.825 8.25755 149.674 8.25 142.083V82.7507L56.4448 100.601C56.8663 100.754 57.3069 100.833 57.75 100.833H107.25C107.694 100.833 108.134 100.754 108.556 100.601L156.75 82.7507V142.083ZM156.75 73.3876C156.316 73.3876 155.879 73.4055 155.445 73.5661L106.582 91.6667H58.4187L9.55518 73.5661C9.12163 73.4055 8.68355 73.3876 8.25 73.3876V50.4167C8.25755 42.8261 13.7935 36.6751 20.625 36.6667H144.375C151.207 36.6751 156.742 42.8261 156.75 50.4167V73.3876Z" fill="black"/>
</svg>
