<svg width="165" height="165" viewBox="0 0 165 165" fill="none" xmlns="http://www.w3.org/2000/svg">
<path d="M66 86.625C59.1655 86.625 53.625 92.1655 53.625 99C53.625 105.835 59.1655 111.375 66 111.375C72.8315 111.367 78.3674 105.832 78.375 99C78.375 92.1655 72.8345 86.625 66 86.625ZM66 103.125C63.722 103.125 61.875 101.278 61.875 99C61.875 96.722 63.722 94.875 66 94.875C68.2765 94.8795 70.1205 96.7235 70.125 99C70.125 101.278 68.278 103.125 66 103.125ZM66 53.625C59.1655 53.625 53.625 59.1655 53.625 66C53.625 72.8345 59.1655 78.375 66 78.375C72.8315 78.3674 78.3674 72.8315 78.375 66C78.375 59.1655 72.8345 53.625 66 53.625ZM66 70.125C63.722 70.125 61.875 68.278 61.875 66C61.875 63.722 63.722 61.875 66 61.875C68.2765 61.8795 70.1205 63.7235 70.125 66C70.125 68.278 68.278 70.125 66 70.125ZM160.875 86.625C163.153 86.625 165 84.778 165 82.5C165 80.222 163.153 78.375 160.875 78.375H140.25V53.625H160.875C163.153 53.625 165 51.778 165 49.5C165 47.222 163.153 45.375 160.875 45.375H140.25C140.239 33.9884 131.012 24.7606 119.625 24.75V4.125C119.625 1.84699 117.778 0 115.5 0C113.222 0 111.375 1.84699 111.375 4.125V24.75H86.625V4.125C86.625 1.84699 84.778 0 82.5 0C80.222 0 78.375 1.84699 78.375 4.125V24.75H53.625V4.125C53.625 1.84699 51.778 0 49.5 0C47.222 0 45.375 1.84699 45.375 4.125V24.75C33.9884 24.7606 24.7606 33.9884 24.75 45.375H4.125C1.84699 45.375 0 47.222 0 49.5C0 51.778 1.84699 53.625 4.125 53.625H24.75V78.375H4.125C1.84699 78.375 0 80.222 0 82.5C0 84.778 1.84699 86.625 4.125 86.625H24.75V111.375H4.125C1.84699 111.375 0 113.222 0 115.5C0 117.778 1.84699 119.625 4.125 119.625H24.75C24.7606 131.012 33.9884 140.239 45.375 140.25V160.88C45.3765 163.157 47.223 165.002 49.5 165C51.7765 164.998 53.6265 163.152 53.625 160.875V140.25H78.375V160.88C78.3765 163.157 80.223 165.002 82.5 165C84.7765 164.998 86.6265 163.152 86.625 160.875V140.25H111.375V160.88C111.377 163.157 113.223 165.002 115.5 165C117.777 164.998 119.627 163.152 119.625 160.875V140.25C131.012 140.239 140.239 131.012 140.25 119.625H160.875C163.153 119.625 165 117.778 165 115.5C165 113.222 163.153 111.375 160.875 111.375H140.25V86.625H160.875ZM132 119.625C131.992 126.457 126.457 131.992 119.625 132H45.375C38.5435 131.992 33.0076 126.457 33 119.625V45.375C33.0076 38.5435 38.5435 33.0076 45.375 33H119.625C126.457 33.0076 131.992 38.5435 132 45.375V119.625ZM99 53.625C92.1655 53.625 86.625 59.1655 86.625 66C86.625 72.8345 92.1655 78.375 99 78.375C105.832 78.3674 111.367 72.8315 111.375 66C111.375 59.1655 105.835 53.625 99 53.625ZM99 70.125C96.722 70.125 94.875 68.278 94.875 66C94.875 63.722 96.722 61.875 99 61.875C101.277 61.8795 103.12 63.7235 103.125 66C103.125 68.278 101.278 70.125 99 70.125ZM99 86.625C92.1655 86.625 86.625 92.1655 86.625 99C86.625 105.835 92.1655 111.375 99 111.375C105.832 111.367 111.367 105.832 111.375 99C111.375 92.1655 105.835 86.625 99 86.625ZM99 103.125C96.722 103.125 94.875 101.278 94.875 99C94.875 96.722 96.722 94.875 99 94.875C101.277 94.8795 103.12 96.7235 103.125 99C103.125 101.278 101.278 103.125 99 103.125Z" fill="black"/>
</svg>
